<?xml version="1.0" standalone="no"?>
<!DOCTYPE svg PUBLIC "-//W3C//DTD SVG 20010904//EN"
 "http://www.w3.org/TR/2001/REC-SVG-20010904/DTD/svg10.dtd">
<svg version="1.0" xmlns="http://www.w3.org/2000/svg"
 width="512.000000pt" height="512.000000pt" viewBox="0 0 512.000000 512.000000"
 preserveAspectRatio="xMidYMid meet">
<metadata>
Created by potrace 1.11, written by Peter Selinger 2001-2013
</metadata>
<g transform="translate(0.000000,512.000000) scale(0.100000,-0.100000)"
fill="#000000" stroke="none">
<path d="M2350 5050 c-517 -43 -993 -234 -1404 -564 -424 -340 -739 -835 -870
-1366 -58 -235 -70 -350 -70 -630 1 -262 11 -360 59 -576 151 -670 618 -1298
1218 -1638 148 -84 371 -182 470 -207 84 -21 151 14 170 91 4 14 4 133 0 265
l-6 240 -105 -14 c-87 -12 -129 -13 -237 -3 -187 17 -264 43 -372 123 -65 48
-101 100 -151 218 -72 166 -165 291 -255 344 -53 31 -117 100 -117 126 0 30
51 45 128 38 143 -14 284 -115 398 -288 73 -110 131 -165 223 -212 58 -28 76
-32 165 -35 104 -4 208 12 292 44 42 16 43 17 59 90 19 86 61 173 109 230 l35
41 -115 17 c-305 45 -549 150 -720 309 -210 195 -324 521 -324 920 0 271 77
496 227 668 l31 35 -25 84 c-20 68 -25 108 -26 200 -1 121 9 182 49 316 23 79
25 81 59 87 117 19 401 -91 651 -253 19 -11 38 -10 145 13 214 46 273 52 519
51 244 0 354 -11 538 -54 46 -11 90 -20 97 -20 7 0 51 23 97 52 220 137 476
230 577 212 38 -7 48 -26 81 -146 44 -163 44 -338 1 -478 l-20 -62 44 -53
c100 -124 169 -275 201 -441 20 -110 15 -390 -10 -529 -22 -120 -77 -281 -129
-378 -149 -280 -446 -460 -873 -530 l-131 -21 40 -51 c22 -27 51 -74 64 -104
53 -119 55 -144 59 -616 5 -487 5 -489 69 -519 46 -22 65 -20 169 15 786 269
1436 999 1621 1823 48 216 58 314 59 576 0 280 -12 395 -70 630 -249 1009
-1109 1780 -2136 1914 -147 20 -421 27 -558 16z"/>
</g>
</svg>
